<svg width="360" height="360" viewBox="0 0 360 360" fill="none" xmlns="http://www.w3.org/2000/svg" role="img" aria-label="Witzighausen Residenz">
<path d="M98.0041 273.143L67.4004 138.689H74.5688L100.577 253.384C100.822 254.61 101.067 255.988 101.313 257.52C101.558 259.052 101.833 260.89 102.14 263.034H102.507C102.814 260.89 103.12 259.052 103.426 257.52C103.733 255.988 104.039 254.61 104.345 253.384L131.916 138.689H140.647L168.494 253.476C168.739 254.64 168.984 256.019 169.229 257.612C169.535 259.143 169.841 260.951 170.148 263.034H170.607C170.852 260.89 171.097 259.052 171.343 257.52C171.588 255.988 171.833 254.61 172.078 253.384L198.086 138.689H204.611L174.008 273.235H166.104L138.258 157.162C138.012 156.12 137.675 154.65 137.247 152.751C136.818 150.79 136.45 148.768 136.144 146.685H135.868C135.5 148.768 135.133 150.759 134.765 152.659C134.398 154.558 134.091 156.059 133.846 157.162L105.908 273.143H98.0041ZM220.511 272.5V138.689H253.504C265.451 138.689 274.458 142.12 280.523 148.983C286.589 155.845 289.622 164.82 289.622 175.91C289.622 187.061 286.619 196.129 280.615 203.113C274.672 210.098 265.635 213.59 253.504 213.59H227.495V272.5H220.511ZM227.495 207.341H253.504C263.919 207.341 271.364 204.431 275.836 198.61C280.309 192.79 282.545 185.254 282.545 176.002C282.545 166.689 280.247 159.214 275.652 153.578C271.118 147.941 263.736 145.092 253.504 145.031H227.495V207.341ZM286.864 272.5L254.607 210.282L262.143 209.822L294.86 272.5H286.864Z" fill="currentColor"/>
<path d="M72 123L174 72L278.5 123" stroke="currentColor" stroke-width="5"/>
</svg>
